<svg width="25" height="25" viewBox="0 -1.5 25 25" fill="none" xmlns="http://www.w3.org/2000/svg">
	<g clip-path="url(#clip0_6_16)">
		<path fill-rule="evenodd" clip-rule="evenodd" d="M16.3615 11.7635C16.5567 11.9589 16.6664 12.2238 16.6664 12.5C16.6664 12.7762 16.5567 13.0411 16.3615 13.2365L10.4688 19.1292C10.3727 19.2287 10.2577 19.308 10.1306 19.3626C10.0035 19.4172 9.86686 19.4459 9.72854 19.4471C9.59023 19.4483 9.45307 19.422 9.32505 19.3696C9.19703 19.3172 9.08073 19.2399 8.98292 19.1421C8.88512 19.0443 8.80777 18.928 8.7554 18.8C8.70302 18.6719 8.67666 18.5348 8.67787 18.3965C8.67907 18.2581 8.7078 18.1215 8.7624 17.9944C8.81699 17.8673 8.89634 17.7523 8.99583 17.6563L14.1521 12.5L8.99583 7.34375C8.80609 7.14729 8.70109 6.88417 8.70347 6.61104C8.70584 6.33792 8.81539 6.07666 9.00852 5.88353C9.20166 5.69039 9.46292 5.58084 9.73604 5.57847C10.0092 5.5761 10.2723 5.68109 10.4688 5.87084L16.3615 11.7635Z" fill="#20655F"/>
	</g>
	<defs>
		<clipPath id="clip0_6_16">
			<rect width="25" height="25" fill="white"/>
		</clipPath>
	</defs>
</svg>