<svg width="25" height="25" viewBox="0 -1.5 25 25" fill="none" xmlns="http://www.w3.org/2000/svg">
	<g clip-path="url(#clip0_6_12)">
		<path fill-rule="evenodd" clip-rule="evenodd" d="M8.63854 13.2365C8.44326 13.0411 8.33356 12.7762 8.33356 12.5C8.33356 12.2238 8.44326 11.9589 8.63854 11.7635L14.5313 5.87083C14.6273 5.77134 14.7423 5.69199 14.8694 5.6374C14.9965 5.5828 15.1331 5.55407 15.2715 5.55287C15.4098 5.55166 15.5469 5.57802 15.675 5.6304C15.803 5.68277 15.9193 5.76012 16.0171 5.85792C16.1149 5.95573 16.1922 6.07203 16.2446 6.20005C16.297 6.32807 16.3233 6.46523 16.3221 6.60354C16.3209 6.74186 16.2922 6.87854 16.2376 7.00563C16.183 7.13272 16.1037 7.24766 16.0042 7.34375L10.8479 12.5L16.0042 17.6563C16.1939 17.8527 16.2989 18.1158 16.2965 18.389C16.2942 18.6621 16.1846 18.9233 15.9915 19.1165C15.7983 19.3096 15.5371 19.4192 15.264 19.4215C14.9908 19.4239 14.7277 19.3189 14.5313 19.1292L8.63854 13.2365Z" fill="#20655F"/>
	</g>
	<defs>
		<clipPath id="clip0_6_12">
			<rect width="25" height="25" fill="white"/>
		</clipPath>
	</defs>
</svg>